<?xml version="1.0" standalone="no"?>
<!DOCTYPE svg PUBLIC "-//W3C//DTD SVG 20010904//EN"
 "http://www.w3.org/TR/2001/REC-SVG-20010904/DTD/svg10.dtd">
<svg version="1.0" xmlns="http://www.w3.org/2000/svg"
 width="300.000000pt" height="300.000000pt" viewBox="0 0 300.000000 300.000000"
 preserveAspectRatio="xMidYMid meet">
<metadata>
Created by potrace 1.11, written by Peter Selinger 2001-2013
</metadata>
<g transform="translate(0.000000,300.000000) scale(0.100000,-0.100000)"
fill="#000000" stroke="none">
<path d="M27 2972 l-27 -28 0 -1446 0 -1445 26 -27 27 -26 1446 0 1447 0 27
28 27 28 0 1445 0 1445 -28 27 -28 27 -1445 0 -1445 0 -27 -28z m654 -129
c112 -52 180 -127 218 -241 109 -323 -233 -629 -542 -484 -91 42 -150 99 -195
190 -35 72 -37 81 -37 171 0 87 3 102 31 161 75 160 209 243 379 237 65 -3 94
-9 146 -34z m929 21 c181 -54 300 -223 288 -409 -14 -218 -202 -385 -419 -373
-147 9 -270 91 -337 226 -35 72 -37 81 -37 171 0 87 3 102 31 162 53 112 129
180 249 221 63 22 156 23 225 2z m769 -96 l101 -103 102 103 c57 56 112 102
122 102 26 0 166 -138 166 -164 0 -13 -39 -60 -102 -123 l-103 -103 104 -104
c88 -89 103 -108 98 -128 -8 -30 -139 -158 -162 -158 -10 0 -65 46 -122 102
l-103 102 -103 -102 c-56 -56 -109 -102 -117 -102 -19 0 -170 150 -170 169 0
8 46 60 102 117 l102 104 -102 104 c-56 57 -102 109 -102 117 0 19 151 169
171 169 9 0 62 -46 118 -102z m-1698 -905 c112 -52 180 -127 218 -241 82 -243
-95 -503 -354 -520 -168 -11 -313 78 -389 238 -28 58 -31 74 -31 160 0 86 3
101 31 161 53 112 128 178 249 222 78 27 193 19 276 -20z m1910 21 c112 -33
207 -116 257 -222 24 -50 27 -69 27 -162 0 -99 -2 -110 -33 -172 -41 -84 -128
-167 -209 -199 -46 -19 -78 -23 -153 -24 -86 0 -101 3 -163 32 -252 119 -312
443 -118 642 102 105 254 146 392 105z m-1194 -96 l103 -103 103 103 c56 56
110 102 119 102 20 0 168 -147 168 -168 0 -8 -46 -61 -102 -118 l-102 -104
102 -104 c56 -57 102 -110 102 -118 0 -21 -148 -168 -168 -168 -9 0 -63 46
-119 102 l-103 103 -104 -104 c-89 -88 -108 -103 -128 -98 -31 8 -158 139
-158 163 0 10 46 65 102 121 l103 103 -104 104 c-88 89 -103 108 -98 128 8 31
139 158 163 158 10 0 65 -46 121 -102z m225 -889 c158 -53 265 -190 276 -354
17 -274 -247 -487 -508 -409 -114 34 -200 110 -254 224 -28 59 -31 74 -31 160
0 86 3 101 31 160 55 114 129 181 249 222 68 24 162 23 237 -3z m-1205 -91
l103 -103 103 103 c56 56 109 102 117 102 19 0 170 -150 170 -170 0 -8 -46
-61 -102 -117 l-102 -103 102 -103 c56 -57 102 -111 102 -119 0 -20 -147 -168
-168 -168 -9 0 -63 46 -119 102 l-103 103 -104 -104 c-89 -88 -108 -103 -128
-98 -31 8 -158 139 -158 163 0 10 46 65 102 121 l103 103 -104 104 c-88 89
-103 108 -98 128 8 31 139 158 163 158 10 0 65 -46 121 -102z m1960 0 l103
-102 103 102 c57 56 112 102 122 102 25 0 165 -139 165 -164 0 -13 -39 -60
-102 -123 l-103 -103 103 -103 c63 -63 102 -110 102 -123 0 -26 -140 -164
-166 -164 -10 0 -65 46 -121 102 l-103 103 -103 -103 c-56 -56 -109 -102 -117
-102 -19 0 -170 150 -170 169 0 8 46 60 102 117 l102 104 -102 104 c-56 57
-102 109 -102 117 0 19 151 169 170 169 8 0 61 -46 117 -102z"/>
<path d="M455 2678 c-153 -53 -189 -265 -63 -362 157 -119 374 24 328 216 -28
113 -156 184 -265 146z"/>
<path d="M1435 2678 c-85 -30 -139 -107 -139 -198 0 -221 296 -287 390 -86 13
28 24 64 24 80 0 141 -145 249 -275 204z"/>
<path d="M440 1690 c-56 -26 -77 -46 -100 -90 -57 -111 -19 -227 89 -282 67
-34 110 -35 177 -4 121 56 158 208 78 314 -54 70 -165 99 -244 62z"/>
<path d="M2419 1696 c-91 -32 -139 -101 -139 -196 0 -178 204 -273 337 -157
169 148 12 428 -198 353z"/>
<path d="M1440 718 c-155 -44 -196 -264 -67 -362 131 -100 316 -18 334 149 11
89 -60 189 -152 214 -47 13 -68 13 -115 -1z"/>
</g>
</svg>
